<mxfile host="app.diagrams.net" agent="Mozilla/5.0 (X11; Linux x86_64) AppleWebKit/537.36 (KHTML, like Gecko) Chrome/131.0.0.0 Safari/537.36" version="26.0.4">
  <diagram name="Page-1" id="H4c2PNsPfidfxLUHojcs">
    <mxGraphModel dx="1496" dy="860" grid="1" gridSize="10" guides="1" tooltips="1" connect="1" arrows="1" fold="1" page="1" pageScale="1" pageWidth="850" pageHeight="1100" math="0" shadow="0">
      <root>
        <mxCell id="0" />
        <mxCell id="1" parent="0" />
        <mxCell id="RSkohBqw2Yx_nqCYreGH-1" value="&lt;font&gt;&amp;nbsp; Thread 1&amp;nbsp;&amp;nbsp;&lt;/font&gt;" style="endArrow=classic;html=1;rounded=0;strokeColor=#8C52FF;strokeWidth=3;labelBackgroundColor=#8C52FF;fontColor=#FFFFFF;fontStyle=1;spacing=6;fontSize=14;spacingTop=0;entryX=0.5;entryY=0;entryDx=0;entryDy=0;labelBorderColor=#8AD4FF;" parent="1" target="6XDUoRaAkj_7WClsuYKI-2" edge="1">
          <mxGeometry width="50" height="50" relative="1" as="geometry">
            <mxPoint x="160" y="120" as="sourcePoint" />
            <mxPoint x="300" y="140" as="targetPoint" />
          </mxGeometry>
        </mxCell>
        <mxCell id="6XDUoRaAkj_7WClsuYKI-4" style="edgeStyle=orthogonalEdgeStyle;rounded=0;orthogonalLoop=1;jettySize=auto;html=1;entryX=0.5;entryY=0;entryDx=0;entryDy=0;strokeColor=#8C52FF;strokeWidth=3;" parent="1" source="6XDUoRaAkj_7WClsuYKI-2" target="6XDUoRaAkj_7WClsuYKI-3" edge="1">
          <mxGeometry relative="1" as="geometry" />
        </mxCell>
        <mxCell id="6XDUoRaAkj_7WClsuYKI-2" value="append_item()" style="rounded=1;whiteSpace=wrap;html=1;labelBackgroundColor=none;labelBorderColor=none;fontSize=14;fontColor=#FFFFFF;strokeColor=#8AD4FF;strokeWidth=2;fillColor=#8C52FF;fontStyle=1" parent="1" vertex="1">
          <mxGeometry x="81" y="250" width="160" height="40" as="geometry" />
        </mxCell>
        <mxCell id="6XDUoRaAkj_7WClsuYKI-3" value="Success?" style="rhombus;whiteSpace=wrap;html=1;fillColor=#8C52FF;strokeColor=#8AD4FF;fontColor=#FFFFFF;fontSize=14;fontStyle=1;strokeWidth=2;rounded=1;" parent="1" vertex="1">
          <mxGeometry x="96.5" y="330" width="129" height="80" as="geometry" />
        </mxCell>
        <mxCell id="6XDUoRaAkj_7WClsuYKI-6" value="Continue" style="rounded=1;whiteSpace=wrap;html=1;labelBackgroundColor=none;labelBorderColor=none;fontSize=14;fontColor=#FFFFFF;strokeColor=#8AD4FF;strokeWidth=2;fillColor=#8C52FF;fontStyle=1" parent="1" vertex="1">
          <mxGeometry x="50" y="450" width="90" height="40" as="geometry" />
        </mxCell>
        <mxCell id="6XDUoRaAkj_7WClsuYKI-8" style="rounded=0;orthogonalLoop=1;jettySize=auto;html=1;entryX=0.5;entryY=0;entryDx=0;entryDy=0;strokeColor=#8C52FF;strokeWidth=3;exitX=0;exitY=1;exitDx=0;exitDy=0;" parent="1" source="6XDUoRaAkj_7WClsuYKI-3" target="6XDUoRaAkj_7WClsuYKI-6" edge="1">
          <mxGeometry relative="1" as="geometry">
            <mxPoint x="171" y="300" as="sourcePoint" />
            <mxPoint x="171" y="340" as="targetPoint" />
          </mxGeometry>
        </mxCell>
        <mxCell id="57nt0GAfIv9fL9bIyC48-6" value="&lt;font style=&quot;font-size: 14px;&quot;&gt;YES&lt;/font&gt;" style="edgeLabel;html=1;align=center;verticalAlign=middle;resizable=0;points=[];fontStyle=1" vertex="1" connectable="0" parent="6XDUoRaAkj_7WClsuYKI-8">
          <mxGeometry x="-0.1569" y="-1" relative="1" as="geometry">
            <mxPoint as="offset" />
          </mxGeometry>
        </mxCell>
        <mxCell id="6XDUoRaAkj_7WClsuYKI-9" style="edgeStyle=orthogonalEdgeStyle;rounded=0;orthogonalLoop=1;jettySize=auto;html=1;strokeColor=#8C52FF;strokeWidth=3;exitX=0.5;exitY=1;exitDx=0;exitDy=0;" parent="1" source="6XDUoRaAkj_7WClsuYKI-6" edge="1">
          <mxGeometry relative="1" as="geometry">
            <mxPoint x="190" y="550" as="sourcePoint" />
            <mxPoint x="95" y="560" as="targetPoint" />
          </mxGeometry>
        </mxCell>
        <mxCell id="6XDUoRaAkj_7WClsuYKI-10" value="&amp;nbsp; Thread 2&amp;nbsp;&amp;nbsp;" style="endArrow=classic;html=1;rounded=0;strokeColor=#8C52FF;strokeWidth=3;labelBackgroundColor=#8C52FF;fontColor=#FFFFFF;fontStyle=1;spacing=6;fontSize=14;spacingTop=0;entryX=0.5;entryY=0;entryDx=0;entryDy=0;labelBorderColor=#8AD4FF;" parent="1" target="6XDUoRaAkj_7WClsuYKI-12" edge="1">
          <mxGeometry width="50" height="50" relative="1" as="geometry">
            <mxPoint x="389" y="120" as="sourcePoint" />
            <mxPoint x="529" y="140" as="targetPoint" />
          </mxGeometry>
        </mxCell>
        <mxCell id="6XDUoRaAkj_7WClsuYKI-11" style="edgeStyle=orthogonalEdgeStyle;rounded=0;orthogonalLoop=1;jettySize=auto;html=1;entryX=0.5;entryY=0;entryDx=0;entryDy=0;strokeColor=#8C52FF;strokeWidth=3;" parent="1" source="6XDUoRaAkj_7WClsuYKI-12" target="6XDUoRaAkj_7WClsuYKI-13" edge="1">
          <mxGeometry relative="1" as="geometry" />
        </mxCell>
        <mxCell id="6XDUoRaAkj_7WClsuYKI-12" value="append_item()" style="rounded=1;whiteSpace=wrap;html=1;labelBackgroundColor=none;labelBorderColor=none;fontSize=14;fontColor=#FFFFFF;strokeColor=#8AD4FF;strokeWidth=2;fillColor=#8C52FF;fontStyle=1;glass=0;shadow=0;" parent="1" vertex="1">
          <mxGeometry x="310" y="250" width="160" height="40" as="geometry" />
        </mxCell>
        <mxCell id="6XDUoRaAkj_7WClsuYKI-13" value="Success?" style="rhombus;whiteSpace=wrap;html=1;fillColor=#8C52FF;strokeColor=#8AD4FF;fontColor=#FFFFFF;fontSize=14;fontStyle=1;strokeWidth=2;rounded=1;" parent="1" vertex="1">
          <mxGeometry x="325.5" y="330" width="129" height="80" as="geometry" />
        </mxCell>
        <mxCell id="57nt0GAfIv9fL9bIyC48-4" value="Error" style="rounded=1;whiteSpace=wrap;html=1;labelBackgroundColor=none;labelBorderColor=none;fontSize=14;fontColor=#660000;strokeColor=#F19C99;strokeWidth=2;fillColor=#EA6B66;fontStyle=1" vertex="1" parent="1">
          <mxGeometry x="170" y="450" width="90" height="40" as="geometry" />
        </mxCell>
        <mxCell id="57nt0GAfIv9fL9bIyC48-5" style="edgeStyle=orthogonalEdgeStyle;rounded=0;orthogonalLoop=1;jettySize=auto;html=1;strokeColor=#F19C99;strokeWidth=3;exitX=0.5;exitY=1;exitDx=0;exitDy=0;" edge="1" source="57nt0GAfIv9fL9bIyC48-4" parent="1">
          <mxGeometry relative="1" as="geometry">
            <mxPoint x="310" y="550" as="sourcePoint" />
            <mxPoint x="215" y="560" as="targetPoint" />
          </mxGeometry>
        </mxCell>
        <mxCell id="57nt0GAfIv9fL9bIyC48-7" style="rounded=0;orthogonalLoop=1;jettySize=auto;html=1;entryX=0.5;entryY=0;entryDx=0;entryDy=0;strokeColor=#8C52FF;strokeWidth=3;exitX=1;exitY=1;exitDx=0;exitDy=0;" edge="1" parent="1" source="6XDUoRaAkj_7WClsuYKI-3" target="57nt0GAfIv9fL9bIyC48-4">
          <mxGeometry relative="1" as="geometry">
            <mxPoint x="139" y="400" as="sourcePoint" />
            <mxPoint x="105" y="460" as="targetPoint" />
          </mxGeometry>
        </mxCell>
        <mxCell id="57nt0GAfIv9fL9bIyC48-8" value="&lt;font style=&quot;font-size: 14px;&quot;&gt;NO&lt;/font&gt;" style="edgeLabel;html=1;align=center;verticalAlign=middle;resizable=0;points=[];fontStyle=1" vertex="1" connectable="0" parent="57nt0GAfIv9fL9bIyC48-7">
          <mxGeometry x="-0.1569" y="-1" relative="1" as="geometry">
            <mxPoint as="offset" />
          </mxGeometry>
        </mxCell>
        <mxCell id="57nt0GAfIv9fL9bIyC48-10" style="rounded=0;orthogonalLoop=1;jettySize=auto;html=1;entryX=1;entryY=0.5;entryDx=0;entryDy=0;strokeColor=#8C52FF;strokeWidth=3;exitX=1;exitY=0.5;exitDx=0;exitDy=0;edgeStyle=orthogonalEdgeStyle;" edge="1" parent="1" source="6XDUoRaAkj_7WClsuYKI-13" target="6XDUoRaAkj_7WClsuYKI-12">
          <mxGeometry relative="1" as="geometry">
            <mxPoint x="203" y="400" as="sourcePoint" />
            <mxPoint x="225" y="460" as="targetPoint" />
            <Array as="points">
              <mxPoint x="520" y="370" />
              <mxPoint x="520" y="270" />
            </Array>
          </mxGeometry>
        </mxCell>
        <mxCell id="57nt0GAfIv9fL9bIyC48-11" value="&lt;font style=&quot;font-size: 14px;&quot;&gt;NO&lt;/font&gt;" style="edgeLabel;html=1;align=center;verticalAlign=middle;resizable=0;points=[];fontStyle=1" vertex="1" connectable="0" parent="57nt0GAfIv9fL9bIyC48-10">
          <mxGeometry x="-0.1569" y="-1" relative="1" as="geometry">
            <mxPoint as="offset" />
          </mxGeometry>
        </mxCell>
        <mxCell id="57nt0GAfIv9fL9bIyC48-12" style="rounded=0;orthogonalLoop=1;jettySize=auto;html=1;entryX=0.5;entryY=0;entryDx=0;entryDy=0;strokeColor=#8C52FF;strokeWidth=3;exitX=0.5;exitY=1;exitDx=0;exitDy=0;" edge="1" target="57nt0GAfIv9fL9bIyC48-14" parent="1" source="6XDUoRaAkj_7WClsuYKI-13">
          <mxGeometry relative="1" as="geometry">
            <mxPoint x="489" y="410" as="sourcePoint" />
            <mxPoint x="531" y="360" as="targetPoint" />
          </mxGeometry>
        </mxCell>
        <mxCell id="57nt0GAfIv9fL9bIyC48-13" value="&lt;font style=&quot;font-size: 14px;&quot;&gt;YES&lt;/font&gt;" style="edgeLabel;html=1;align=center;verticalAlign=middle;resizable=0;points=[];fontStyle=1" vertex="1" connectable="0" parent="57nt0GAfIv9fL9bIyC48-12">
          <mxGeometry x="-0.1569" y="-1" relative="1" as="geometry">
            <mxPoint x="1" y="-4" as="offset" />
          </mxGeometry>
        </mxCell>
        <mxCell id="57nt0GAfIv9fL9bIyC48-14" value="Continue" style="rounded=1;whiteSpace=wrap;html=1;labelBackgroundColor=none;labelBorderColor=none;fontSize=14;fontColor=#FFFFFF;strokeColor=#8AD4FF;strokeWidth=2;fillColor=#8C52FF;fontStyle=1" vertex="1" parent="1">
          <mxGeometry x="345" y="450" width="90" height="40" as="geometry" />
        </mxCell>
        <mxCell id="57nt0GAfIv9fL9bIyC48-15" style="edgeStyle=orthogonalEdgeStyle;rounded=0;orthogonalLoop=1;jettySize=auto;html=1;strokeColor=#8C52FF;strokeWidth=3;exitX=0.5;exitY=1;exitDx=0;exitDy=0;" edge="1" source="57nt0GAfIv9fL9bIyC48-14" parent="1">
          <mxGeometry relative="1" as="geometry">
            <mxPoint x="550" y="570" as="sourcePoint" />
            <mxPoint x="390" y="560" as="targetPoint" />
          </mxGeometry>
        </mxCell>
      </root>
    </mxGraphModel>
  </diagram>
</mxfile>
